<svg xmlns="http://www.w3.org/2000/svg" width="385.174" height="91" viewBox="0 0 385.174 91">
  <g id="Grupo_75" data-name="Grupo 75" transform="translate(-451 558)">
    <text id="Agendad" transform="translate(452 -486)" fill="#9c2bff" stroke="rgba(0,0,0,0)" stroke-miterlimit="10" stroke-width="1" font-size="76" font-family="Raleway" font-weight="800"><tspan x="0" y="0">Agendad</tspan></text>
    <path id="Icon_awesome-check-circle" data-name="Icon awesome-check-circle" d="M49.237,23.053c0,12.421-10.9,22.49-24.337,22.49S.563,35.474.563,23.053,11.459.563,24.9.563,49.237,10.632,49.237,23.053ZM22.085,34.961,40.141,18.275a1.374,1.374,0,0,0,0-2.052l-2.22-2.052a1.663,1.663,0,0,0-2.221,0L20.974,27.779,14.1,21.426a1.663,1.663,0,0,0-2.221,0l-2.22,2.052a1.374,1.374,0,0,0,0,2.052l10.206,9.431A1.663,1.663,0,0,0,22.085,34.961Z" transform="translate(786.438 -531.862)" fill="#ffc72b" stroke="rgba(0,0,0,0)" stroke-miterlimit="10" stroke-width="1"/>
  </g>
</svg>
