<svg xmlns="http://www.w3.org/2000/svg" width="45" height="45" viewBox="0 0 45 45">
  <path id="Icon_awesome-bell" data-name="Icon awesome-bell" d="M22.5,45c3.548,0,6.426-2.518,6.426-5.625H16.074C16.074,42.482,18.952,45,22.5,45ZM44.135,31.842c-1.941-1.825-5.572-4.569-5.572-13.561,0-6.829-5.472-12.3-12.851-13.637V2.813A3.033,3.033,0,0,0,22.5,0a3.033,3.033,0,0,0-3.212,2.813V4.644C11.909,5.985,6.437,11.452,6.437,18.281c0,8.991-3.631,11.736-5.572,13.561A2.569,2.569,0,0,0,0,33.75a3.031,3.031,0,0,0,3.224,2.813H41.776A3.031,3.031,0,0,0,45,33.75a2.568,2.568,0,0,0-.865-1.908Z" fill="#9c2bff"/>
</svg>
