<svg xmlns="http://www.w3.org/2000/svg" width="45" height="45" viewBox="0 0 45 45">
  <path id="Icon_awesome-calendar-alt" data-name="Icon awesome-calendar-alt" d="M0,40.781C0,43.11,2.16,45,4.821,45H40.179C42.84,45,45,43.11,45,40.781V16.875H0ZM32.143,23.555A1.141,1.141,0,0,1,33.348,22.5h4.018a1.141,1.141,0,0,1,1.205,1.055V27.07a1.141,1.141,0,0,1-1.205,1.055H33.348a1.141,1.141,0,0,1-1.205-1.055Zm0,11.25a1.141,1.141,0,0,1,1.205-1.055h4.018A1.141,1.141,0,0,1,38.571,34.8V38.32a1.141,1.141,0,0,1-1.205,1.055H33.348a1.141,1.141,0,0,1-1.205-1.055ZM19.286,23.555A1.141,1.141,0,0,1,20.491,22.5h4.018a1.141,1.141,0,0,1,1.205,1.055V27.07a1.141,1.141,0,0,1-1.205,1.055H20.491a1.141,1.141,0,0,1-1.205-1.055Zm0,11.25a1.141,1.141,0,0,1,1.205-1.055h4.018A1.141,1.141,0,0,1,25.714,34.8V38.32a1.141,1.141,0,0,1-1.205,1.055H20.491a1.141,1.141,0,0,1-1.205-1.055ZM6.429,23.555A1.141,1.141,0,0,1,7.634,22.5h4.018a1.141,1.141,0,0,1,1.205,1.055V27.07a1.141,1.141,0,0,1-1.205,1.055H7.634A1.141,1.141,0,0,1,6.429,27.07Zm0,11.25A1.141,1.141,0,0,1,7.634,33.75h4.018A1.141,1.141,0,0,1,12.857,34.8V38.32a1.141,1.141,0,0,1-1.205,1.055H7.634A1.141,1.141,0,0,1,6.429,38.32Zm33.75-29.18H35.357V1.406A1.521,1.521,0,0,0,33.75,0H30.536a1.521,1.521,0,0,0-1.607,1.406V5.625H16.071V1.406A1.521,1.521,0,0,0,14.464,0H11.25A1.521,1.521,0,0,0,9.643,1.406V5.625H4.821C2.16,5.625,0,7.515,0,9.844v4.219H45V9.844C45,7.515,42.84,5.625,40.179,5.625Z" fill="#907b8e"/>
</svg>
