<svg xmlns="http://www.w3.org/2000/svg" width="45" height="45" viewBox="0 0 45 45">
  <path id="Icon_awesome-check-square" data-name="Icon awesome-check-square" d="M40.179,47.25H4.821A4.821,4.821,0,0,1,0,42.429V7.071A4.821,4.821,0,0,1,4.821,2.25H40.179A4.821,4.821,0,0,1,45,7.071V42.429A4.821,4.821,0,0,1,40.179,47.25ZM19.619,37.4,38.1,18.918a1.607,1.607,0,0,0,0-2.273l-2.273-2.273a1.607,1.607,0,0,0-2.273,0L18.482,29.445l-7.037-7.037a1.607,1.607,0,0,0-2.273,0L6.9,24.681a1.607,1.607,0,0,0,0,2.273L17.346,37.4a1.607,1.607,0,0,0,2.273,0Z" transform="translate(0 -2.25)" fill="#ffc72b"/>
</svg>
