<svg xmlns="http://www.w3.org/2000/svg" width="69" height="69" viewBox="0 0 69 69">
  <g id="Grupo_38" data-name="Grupo 38" transform="translate(-803 134)">
    <path id="Caminho_3" data-name="Caminho 3" d="M34.5,0A34.5,34.5,0,1,1,0,34.5,34.5,34.5,0,0,1,34.5,0Z" transform="translate(803 -134)" fill="#ffc72b"/>
    <path id="Icon_metro-film" data-name="Icon metro-film" d="M2.571,5.784v26h30v-26h-30ZM8.2,29.617H4.446V25.284H8.2Zm0-8.667H4.446V16.617H8.2Zm0-8.667H4.446V7.951H8.2v4.333ZM25.071,29.617h-15V7.951h15V29.617Zm5.625,0h-3.75V25.284H30.7Zm0-8.667h-3.75V16.617H30.7Zm0-8.667h-3.75V7.951H30.7v4.333Zm-16.875,0v13l7.5-6.5Z" transform="translate(820.429 -117.784)" fill="#fff"/>
  </g>
</svg>
