<svg xmlns="http://www.w3.org/2000/svg" width="69" height="69" viewBox="0 0 69 69">
  <g id="Grupo_40" data-name="Grupo 40" transform="translate(-981 134)">
    <path id="Caminho_3" data-name="Caminho 3" d="M34.5,0A34.5,34.5,0,1,1,0,34.5,34.5,34.5,0,0,1,34.5,0Z" transform="translate(981 -134)" fill="#ffc72b"/>
    <path id="Icon_material-free-breakfast" data-name="Icon material-free-breakfast" d="M32.667,4.5H6V21.167a6.665,6.665,0,0,0,6.667,6.667h10a6.665,6.665,0,0,0,6.667-6.667v-5h3.333A3.332,3.332,0,0,0,36,12.833v-5A3.322,3.322,0,0,0,32.667,4.5Zm0,8.333H29.333v-5h3.333ZM6,31.167H32.667V34.5H6Z" transform="translate(995 -118.5)" fill="#fff"/>
  </g>
</svg>
