<svg xmlns="http://www.w3.org/2000/svg" width="69" height="69" viewBox="0 0 69 69">
  <g id="Grupo_59" data-name="Grupo 59" transform="translate(-1159 134)">
    <path id="Caminho_3" data-name="Caminho 3" d="M34.5,0A34.5,34.5,0,1,1,0,34.5,34.5,34.5,0,0,1,34.5,0Z" transform="translate(1159 -134)" fill="#ffc72b"/>
    <path id="Icon_ionic-ios-airplane" data-name="Icon ionic-ios-airplane" d="M34.326,18.545c-.29,0-1.264.009-1.537.027l-5.541.151a.157.157,0,0,1-.145-.08L18.8,5.719a1.361,1.361,0,0,0-1.153-.656H15.62c-.478,0-.64.5-.47.958l4.277,12.666a.173.173,0,0,1-.154.239l-10.45.16a.678.678,0,0,1-.563-.275L5.1,14.819a1.337,1.337,0,0,0-1.076-.541H2.592a.351.351,0,0,0-.324.47l1.7,6.094a1.5,1.5,0,0,1,0,1.056l-1.7,6.094a.351.351,0,0,0,.324.47H4.018a1.362,1.362,0,0,0,1.076-.541l3.219-4.054a.689.689,0,0,1,.563-.275l10.39.239a.175.175,0,0,1,.154.239L15.142,36.746c-.171.461-.009.958.47.958h2.023a1.35,1.35,0,0,0,1.153-.656L27.1,24.133a.166.166,0,0,1,.145-.08l5.541.151c.282.018,1.246.027,1.537.027,3.782,0,6.173-1.268,6.173-2.838S38.117,18.545,34.326,18.545Z" transform="translate(1172.501 -120.438)" fill="#fff"/>
  </g>
</svg>
