<svg xmlns="http://www.w3.org/2000/svg" width="69" height="69" viewBox="0 0 69 69">
  <g id="Grupo_39" data-name="Grupo 39" transform="translate(-892 134)">
    <path id="Caminho_3" data-name="Caminho 3" d="M34.5,0A34.5,34.5,0,1,1,0,34.5,34.5,34.5,0,0,1,34.5,0Z" transform="translate(892 -134)" fill="#ffc72b"/>
    <path id="Icon_awesome-football-ball" data-name="Icon awesome-football-ball" d="M29.123,3.726a3.194,3.194,0,0,0-2.256-2.262,27.1,27.1,0,0,0-6.339-.9L30,10.046a27.174,27.174,0,0,0-.877-6.321ZM.877,27.4a3.194,3.194,0,0,0,2.256,2.262,27.1,27.1,0,0,0,6.339.9L0,21.079A27.173,27.173,0,0,0,.877,27.4ZM.254,17.22l13.077,13.1A19.219,19.219,0,0,0,29.752,13.905L16.669.8A19.207,19.207,0,0,0,.254,17.22ZM19.446,9.744a.486.486,0,0,1,.683,0l.683.683a.486.486,0,0,1,0,.683L19.1,12.823l1.712,1.712a.486.486,0,0,1,0,.683l-.683.683a.486.486,0,0,1-.683,0L17.734,14.19l-1.367,1.373,1.712,1.712a.486.486,0,0,1,0,.683l-.683.683a.486.486,0,0,1-.683,0L15,16.929,13.633,18.3l1.712,1.712a.486.486,0,0,1,0,.683l-.683.683a.486.486,0,0,1-.683,0l-1.712-1.712-1.712,1.712a.486.486,0,0,1-.683,0l-.683-.683a.486.486,0,0,1,0-.683L10.9,18.3,9.188,16.591a.486.486,0,0,1,0-.683l.683-.683a.486.486,0,0,1,.683,0l1.712,1.712,1.367-1.367-1.712-1.712a.486.486,0,0,1,0-.683l.683-.683a.486.486,0,0,1,.683,0L15,14.2l1.367-1.367-1.712-1.712a.486.486,0,0,1,0-.683l.683-.683a.486.486,0,0,1,.683,0l1.712,1.712Z" transform="translate(912 -114.563)" fill="#fff"/>
  </g>
</svg>
