<svg xmlns="http://www.w3.org/2000/svg" width="70" height="70" viewBox="0 0 70 70">
  <g id="Grupo_34" data-name="Grupo 34" transform="translate(-452 134)">
    <path id="Caminho_2" data-name="Caminho 2" d="M35,0A35,35,0,1,1,0,35,35,35,0,0,1,35,0Z" transform="translate(452 -134)" fill="#ffc72b"/>
    <path id="Icon_map-school" data-name="Icon map-school" d="M19.7,5.06V25.52H4.049V5.06H19.7M22.31,2.58H1.44V28.62H22.31V2.58ZM6.005,7.54H17.744v2.48H6.005Zm0,4.34H17.744v2.48H6.005Zm0,4.34H17.744V18.7H6.005Zm0,4.34H17.744v2.48H6.005ZM26.223,7.54H31.44V24.9H26.223ZM28.835.72a2.54,2.54,0,0,0-2.613,2.441V5.68H31.44V3.161A2.536,2.536,0,0,0,28.835.72ZM26.182,26.76l2.635,3.96,2.622-3.96Z" transform="translate(470.945 -114.207)" fill="#fff"/>
  </g>
</svg>
