<svg xmlns="http://www.w3.org/2000/svg" width="69" height="69" viewBox="0 0 69 69">
  <g id="Grupo_35" data-name="Grupo 35" transform="translate(-536 134)">
    <path id="Caminho_3" data-name="Caminho 3" d="M34.5,0A34.5,34.5,0,1,1,0,34.5,34.5,34.5,0,0,1,34.5,0Z" transform="translate(536 -134)" fill="#ffc72b"/>
    <path id="Icon_map-gym" data-name="Icon map-gym" d="M11.542,28.657a.64.64,0,0,1-.032.9l-1.381,1.292a.635.635,0,0,1-.9-.032L1.187,22.148a.64.64,0,0,1,.032-.9L2.6,19.957a.635.635,0,0,1,.9.032ZM21.807,12.345a.64.64,0,0,1-.032.9L13.08,21.367a.635.635,0,0,1-.9-.032l-2.075-2.239a.64.64,0,0,1,.032-.9l8.692-8.121a.634.634,0,0,1,.9.032l2.078,2.239ZM14.5,25.893a.641.641,0,0,1-.032.9l-1.383,1.291a.635.635,0,0,1-.9-.032l-8.04-8.669a.64.64,0,0,1,.032-.9l1.381-1.29a.635.635,0,0,1,.9.032ZM27.9,12.656a.64.64,0,0,1-.033.9L26.48,14.847a.636.636,0,0,1-.9-.032L17.54,6.148a.64.64,0,0,1,.032-.9l1.386-1.294a.634.634,0,0,1,.9.032l8.04,8.67ZM30.849,9.9a.642.642,0,0,1-.032.9l-1.38,1.29a.634.634,0,0,1-.9-.032L20.5,3.384a.642.642,0,0,1,.032-.9L21.913,1.19a.633.633,0,0,1,.9.032Z" transform="translate(554.982 -116.019)" fill="#fff"/>
  </g>
</svg>
