<svg xmlns="http://www.w3.org/2000/svg" width="69" height="69" viewBox="0 0 69 69">
  <g id="Grupo_36" data-name="Grupo 36" transform="translate(-625 134)">
    <path id="Caminho_3" data-name="Caminho 3" d="M34.5,0A34.5,34.5,0,1,1,0,34.5,34.5,34.5,0,0,1,34.5,0Z" transform="translate(625 -134)" fill="#ffc72b"/>
    <path id="Icon_material-work" data-name="Icon material-work" d="M30,9.316H24V6.158A3.071,3.071,0,0,0,21,3H15a3.071,3.071,0,0,0-3,3.158V9.316H6a3.059,3.059,0,0,0-2.985,3.158L3,29.842A3.071,3.071,0,0,0,6,33H30a3.071,3.071,0,0,0,3-3.158V12.474A3.071,3.071,0,0,0,30,9.316Zm-9,0H15V6.158h6Z" transform="translate(642 -117)" fill="#fff"/>
  </g>
</svg>
