<svg xmlns="http://www.w3.org/2000/svg" width="69" height="69" viewBox="0 0 69 69">
  <g id="Grupo_37" data-name="Grupo 37" transform="translate(-714 134)">
    <path id="Caminho_3" data-name="Caminho 3" d="M34.5,0A34.5,34.5,0,1,1,0,34.5,34.5,34.5,0,0,1,34.5,0Z" transform="translate(714 -134)" fill="#ffc72b"/>
    <path id="Icon_awesome-sticky-note" data-name="Icon awesome-sticky-note" d="M20.893,21.536H30V3.857A1.6,1.6,0,0,0,28.393,2.25H1.607A1.6,1.6,0,0,0,0,3.857V30.643A1.6,1.6,0,0,0,1.607,32.25H19.286V23.143A1.612,1.612,0,0,1,20.893,21.536Zm8.638,3.683-6.563,6.563a1.606,1.606,0,0,1-1.138.469h-.4V23.679H30v.408A1.6,1.6,0,0,1,29.531,25.219Z" transform="translate(734 -116.25)" fill="#fff"/>
  </g>
</svg>
