<svg xmlns="http://www.w3.org/2000/svg" width="45" height="45" viewBox="0 0 45 45">
  <path id="Icon_awesome-trash" data-name="Icon awesome-trash" d="M43.393,2.813H31.339L30.4,1.169A2.466,2.466,0,0,0,28.235,0H16.754A2.435,2.435,0,0,0,14.6,1.169l-.944,1.644H1.607A1.517,1.517,0,0,0,0,4.219V7.031A1.517,1.517,0,0,0,1.607,8.438H43.393A1.517,1.517,0,0,0,45,7.031V4.219A1.517,1.517,0,0,0,43.393,2.813ZM5.344,41.045A4.6,4.6,0,0,0,10.155,45h24.69a4.6,4.6,0,0,0,4.811-3.955l2.13-29.8H3.214Z" transform="translate(0 0)" fill="#ffc72b"/>
</svg>
